<?xml version="1.0" encoding="UTF-8"?>
<svg id="Layer_2" data-name="Layer 2" xmlns="http://www.w3.org/2000/svg" viewBox="0 0 205.15 86.71">
  <defs>
    <style>
      .cls-1 {
        fill: #231f20;
      }
    </style>
  </defs>
  <g id="Layer_1-2" data-name="Layer 1">
    <g>
      <path d="M16.29,14.54c1.44-1.44,3.13-2.54,5.1-3.3,1.96-.76,4.12-1.15,6.46-1.15,2.49,0,4.78.49,6.89,1.47,2.11.98,4.02,2.45,5.74,4.42l7.46-6.89c-2.39-2.92-5.35-5.13-8.86-6.64C35.57.94,31.63.18,27.28.18c-3.92,0-7.54.63-10.84,1.9-3.3,1.27-6.19,3.08-8.65,5.42-2.47,2.35-4.38,5.1-5.74,8.25C.68,18.92,0,22.39,0,26.17s.68,7.25,2.04,10.41c1.36,3.16,3.27,5.91,5.71,8.25s5.32,4.15,8.65,5.42c3.33,1.27,6.93,1.9,10.8,1.9,4.4,0,8.36-.77,11.88-2.3,3.52-1.53,6.47-3.76,8.86-6.68l-7.46-6.89c-1.72,2.01-3.64,3.51-5.74,4.49-2.11.98-4.4,1.47-6.89,1.47-2.35,0-4.5-.38-6.46-1.15s-3.66-1.87-5.1-3.3c-1.44-1.44-2.55-3.13-3.34-5.1-.79-1.96-1.18-4.14-1.18-6.53s.39-4.57,1.18-6.53c.79-1.96,1.9-3.66,3.34-5.1Z"/>
      <path d="M146.86,35.14c3.25-1.44,5.77-3.5,7.54-6.21,1.77-2.7,2.66-5.92,2.66-9.65,0-5.69-1.94-10.16-5.81-13.39-3.88-3.23-9.31-4.85-16.29-4.85h-21.46v50.25h11.63v-14h10.12c.18,0,.36,0,.54-.01l9.65,14.01h12.56l-11.23-16.11s.07-.03.1-.04ZM142.63,12.82c1.77,1.53,2.66,3.68,2.66,6.46s-.89,4.87-2.66,6.42c-1.77,1.56-4.45,2.33-8.04,2.33h-9.48V10.52h9.48c3.59,0,6.27.77,8.04,2.3Z"/>
      <polygon points="177.8 41.96 177.8 30.33 201.13 30.33 201.13 21.29 177.8 21.29 177.8 10.37 204.21 10.37 204.21 1.04 166.24 1.04 166.24 51.29 205.15 51.29 205.15 41.96 177.8 41.96"/>
      <path d="M79.8,47.01c-.87,0-1.61.52-1.95,1.27-4.78-.23-9.18-1.96-12.74-4.74-.45-.49-1.11-1.46-.61-2.64.55-1.31,1.37-1.89,2.24-2.49.51-.36,1.04-.73,1.49-1.25.54-.62.84-1.44,1.14-2.24.17-.46.56-1.53.76-1.54.26.07.9.86,1.32,1.38.98,1.22,2.21,2.75,4.05,3.42.75.27,1.53.34,2.21.39.55.04,1.13.09,1.4.25.46.27,1.05.12,1.32-.34.27-.46.12-1.05-.34-1.32-.65-.39-1.45-.45-2.22-.51-.59-.05-1.19-.1-1.7-.28-1.34-.49-2.33-1.72-3.21-2.81-.92-1.15-1.72-2.13-2.86-2.09-1.51.06-2.07,1.57-2.52,2.79-.23.63-.48,1.29-.78,1.64-.29.34-.69.61-1.14.93-.95.67-2.14,1.5-2.91,3.32-.14.33-.23.65-.28.96-3.77-4.04-6.09-9.45-6.09-15.37,0-1.04.08-2.07.22-3.07.13.04.25.08.38.11,1.3.37,1.8.59,1.93,1.33.34,1.96,3.28,5.81,6.28,6.86.55.19,1.04.27,1.48.27,1.01,0,1.74-.42,2.22-.84,1.43-1.26.03-3.19-1.32-5.06-.54-.75-1.52-2.1-1.56-2.62.02,0,.04-.02.06-.02.93-.3,1.44-.27,1.9-.24,1.33.09,2-.24,3.33-2.32.87-1.35,2.67-1.76,4.26-2.12,1.56-.35,3.33-.75,3.33-2.4,0-1.21-.86-2.52-2.25-3.42-1.58-1.02-3.41-1.24-4.87-.58-.96.43-1.59.22-1.76.14-.2-.09-.26-.19-.27-.19,0-.02.05-.11.2-.22,1.2-.9,2.53-2.88,1.9-4.28-.23-.51-.88-1.31-2.67-.95-.51.1-1.04.13-1.57.12,3.07-1.8,6.6-2.89,10.36-3.06.37.64,1.05,1.08,1.85,1.08,1.18,0,2.14-.96,2.14-2.14s-.96-2.14-2.14-2.14c-.87,0-1.62.53-1.95,1.28-6.18.27-11.94,2.82-16.31,7.23-4.57,4.62-7.09,10.74-7.09,17.23s2.52,12.62,7.09,17.23c.76.77,1.57,1.48,2.42,2.13.13.12.25.23.37.31.05.04.11.06.16.08,3.91,2.87,8.56,4.5,13.48,4.7.37.64,1.06,1.08,1.85,1.08,1.18,0,2.14-.96,2.14-2.14s-.96-2.14-2.14-2.14ZM65.28,7.81c1.3.41,2.81.51,4.26.22.26-.05.43-.06.53-.05-.05.4-.54,1.29-1.29,1.86-1.11.83-1.15,1.97-.7,2.73.64,1.09,2.43,1.75,4.47.83,1.02-.46,2.24-.07,3.03.44.78.51,1.34,1.22,1.36,1.76-.24.2-1.19.42-1.82.56-1.76.4-4.16.94-5.46,2.96-.95,1.48-1.08,1.47-1.59,1.43-.53-.03-1.34-.09-2.62.33-.84.27-1.17.81-1.3,1.2-.42,1.27.63,2.72,1.84,4.39.56.78,1.48,2.05,1.53,2.55-.3.24-.79.46-1.72.14-2.34-.82-4.8-4.11-5.02-5.37-.35-2.01-2.05-2.5-3.29-2.85-.19-.06-.38-.11-.56-.17,1.19-5.23,4.21-9.79,8.35-12.96Z"/>
      <path d="M73.18,5.77v3.15c0,.53.43.96.96.96s.96-.43.96-.96v-3.15c0-.53-.43-.96-.96-.96s-.96.43-.96.96Z"/>
      <path d="M75.91,5.77v4.59c0,.53.43.96.96.96s.96-.43.96-.96v-4.59c0-.53-.43-.96-.96-.96s-.96.43-.96.96Z"/>
      <path d="M80.69,12.83v-7.05c0-.53-.43-.96-.96-.96s-.96.43-.96.96v7.05c0,.53.43.96.96.96s.96-.43.96-.96Z"/>
      <path d="M77.99,41.83c.53,0,.96-.43.96-.96s-.43-.96-.96-.96h-4.57c-.53,0-.96.43-.96.96s.43.96.96.96h4.57Z"/>
      <path d="M81.24,43.42c0-.53-.43-.96-.96-.96h-3.82c-.53,0-.96.43-.96.96s.43.96.96.96h3.82c.53,0,.96-.43.96-.96Z"/>
      <path d="M73.9,46.94h3.82c.53,0,.96-.43.96-.96s-.43-.96-.96-.96h-3.82c-.53,0-.96.43-.96.96s.43.96.96.96Z"/>
      <path d="M86.94,8.73v10.18h-10.61c-.53,0-.96.43-.96.96s.43.96.96.96h11.57c.53,0,.96-.43.96-.96v-11.12c.99-.38,1.69-1.32,1.69-2.44,0-1.44-1.18-2.62-2.62-2.62s-2.62,1.18-2.62,2.62c0,1.09.67,2.03,1.62,2.42ZM87.94,5.35c.53,0,.96.43.96.96s-.43.96-.96.96-.96-.43-.96-.96.43-.96.96-.96Z"/>
      <path d="M98.21,19.56c-.01.07-.04.13-.04.2v3.6h-25.37c-.53,0-.96.43-.96.96s.43.96.96.96h26.33c.53,0,.96-.43.96-.96v-4.56c0-.06-.02-.12-.04-.18,1-.37,1.72-1.32,1.72-2.45,0-1.44-1.18-2.62-2.62-2.62s-2.62,1.18-2.62,2.62c0,1.11.69,2.05,1.67,2.43ZM99.16,16.17c.53,0,.96.43.96.96s-.43.96-.96.96-.96-.43-.96-.96.43-.96.96-.96Z"/>
      <path d="M100.38,26.25c-1.07,0-1.99.65-2.4,1.57h-25.71c-.53,0-.96.43-.96.96s.43.96.96.96h25.65c.36,1.01,1.32,1.75,2.46,1.75,1.44,0,2.62-1.18,2.62-2.62s-1.18-2.62-2.62-2.62ZM100.38,29.83c-.53,0-.96-.43-.96-.96s.43-.96.96-.96.96.43.96.96-.43.96-.96.96Z"/>
      <path d="M95.12,36.94c-1.16,0-2.13.76-2.48,1.8h-2.5v-5.31c0-.53-.43-.96-.96-.96h-13.11c-.53,0-.96.43-.96.96s.43.96.96.96h12.15v5.31c0,.53.43.96.96.96h3.58c.42.89,1.32,1.51,2.36,1.51,1.44,0,2.62-1.18,2.62-2.62s-1.18-2.62-2.62-2.62ZM95.12,40.52c-.53,0-.96-.43-.96-.96s.43-.96.96-.96.96.43.96.96-.43.96-.96.96Z"/>
    </g>
    <g>
      <path class="cls-1" d="M131.52,70.3c-.48-.49-1.05-.87-1.71-1.13-.66-.26-1.37-.39-2.15-.39s-1.49.13-2.13.39-1.22.64-1.71,1.13c-.49.49-.87,1.06-1.14,1.71-.27.65-.41,1.37-.41,2.16s.13,1.49.41,2.14c.27.66.65,1.23,1.13,1.72.48.49,1.05.86,1.71,1.13.66.26,1.37.39,2.15.39s1.49-.13,2.15-.39c.66-.26,1.23-.64,1.71-1.13.48-.49.86-1.06,1.13-1.71.27-.65.41-1.37.41-2.16s-.13-1.51-.41-2.16c-.27-.65-.65-1.22-1.13-1.71Z"/>
      <path class="cls-1" d="M0,61.63v25.08h205.15v-25.08H0ZM40.56,81.83h-2.34l-8.45-10.37v10.37h-2.82v-15.32h2.34l8.45,10.37v-10.37h2.82v15.32ZM62.08,81.83h-11.49v-15.32h11.19v2.39h-8.34v3.98h7.4v2.34h-7.4v4.22h8.65v2.39ZM82.2,68.91h-5.08v12.92h-2.85v-12.92h-5.08v-2.41h13v2.41ZM107.35,81.83h-3.02l-3.79-11.33-3.85,11.33h-3.04l-5.08-15.32h2.96l3.81,11.66,3.96-11.66h2.63l3.87,11.72,3.92-11.72h2.71l-5.08,15.32ZM135.3,77.32c-.41.96-.99,1.79-1.73,2.5s-1.62,1.25-2.62,1.64c-1,.39-2.09.59-3.27.59s-2.3-.2-3.3-.59c-1.01-.39-1.88-.94-2.63-1.65s-1.32-1.54-1.73-2.5c-.41-.96-.61-2-.61-3.14s.2-2.19.61-3.14c.41-.96.99-1.79,1.73-2.5s1.62-1.26,2.63-1.65c1.01-.39,2.1-.59,3.28-.59s2.29.2,3.29.59c1,.39,1.87.94,2.62,1.65s1.32,1.54,1.73,2.5c.41.96.61,2,.61,3.14s-.2,2.19-.61,3.15ZM154.87,81.83l-3.13-4.49c-.2,0-.39.02-.59.02h-3.46v4.47h-2.85v-15.32h6.28c2.04,0,3.64.48,4.8,1.44s1.74,2.3,1.74,4.01c0,1.12-.26,2.09-.79,2.9-.52.81-1.27,1.43-2.24,1.86-.07.03-.15.05-.23.08l3.52,5.03h-3.06ZM177.44,81.83l-5.4-6.42-2.44,2.5v3.93h-2.85v-15.32h2.85v7.86l7.57-7.86h3.2l-6.44,6.85,6.84,8.48h-3.33Z"/>
      <path class="cls-1" d="M153.85,69.7c-.63-.53-1.58-.79-2.83-.79h-3.33v6.11h3.33c1.25,0,2.2-.27,2.83-.81s.95-1.29.95-2.25-.32-1.73-.95-2.25Z"/>
    </g>
  </g>
</svg>